<?xml version="1.0" encoding="UTF-8"?>
<svg xmlns="http://www.w3.org/2000/svg" width="272" height="168" viewBox="0 0 340 210"><defs><linearGradient id="ftRim" x1="0" y1="0" x2="0" y2="1"><stop offset="0%" stop-color="#F4F2EE"></stop><stop offset="50%" stop-color="#CFCBC2"></stop><stop offset="100%" stop-color="#9C978C"></stop></linearGradient><linearGradient id="ftFloor" x1="0" y1="0" x2="1" y2="1"><stop offset="0%" stop-color="#C4C0B6"></stop><stop offset="100%" stop-color="#E2DFD8"></stop></linearGradient></defs><ellipse cx="170" cy="198" rx="152" ry="9" fill="#000000" opacity="0.3"></ellipse><rect x="2" y="68" width="26" height="80" rx="11" fill="url(#ftRim)" stroke="#5E584F" stroke-width="3"></rect><rect x="312" y="68" width="26" height="80" rx="11" fill="url(#ftRim)" stroke="#5E584F" stroke-width="3"></rect><rect x="14" y="20" width="312" height="172" rx="16" fill="url(#ftRim)" stroke="#5E584F" stroke-width="3.5"></rect><rect x="19" y="24" width="302" height="164" rx="13" fill="none" stroke="#FFFFFF" stroke-width="2" opacity="0.6"></rect><rect x="30" y="35" width="280" height="142" rx="8" fill="url(#ftFloor)" stroke="#8C877A" stroke-width="2.5"></rect><rect x="42" y="46" width="256" height="122" rx="3" fill="#F8DADE" stroke="#DE9EA7" stroke-width="2" transform="rotate(-1.5 170 107)"></rect><g transform="translate(58 60) scale(0.44)"><path d="M4 60 C2 38 18 20 38 18 L42 54 C30 50 16 52 4 60 Z" fill="#EDAA52" stroke="#7A3E12" stroke-width="5" stroke-linejoin="round"></path><path d="M96 60 C98 38 82 20 62 18 L58 54 C70 50 84 52 96 60 Z" fill="#EDAA52" stroke="#7A3E12" stroke-width="5" stroke-linejoin="round"></path></g><rect x="112" y="70" width="170" height="20" rx="3" fill="#FFF8EA" stroke="#D9B47A" stroke-width="2"></rect><g transform="translate(58 112) scale(0.44)"><path d="M4 60 C2 38 18 20 38 18 L42 54 C30 50 16 52 4 60 Z" fill="#EDAA52" stroke="#7A3E12" stroke-width="5" stroke-linejoin="round"></path><path d="M96 60 C98 38 82 20 62 18 L58 54 C70 50 84 52 96 60 Z" fill="#EDAA52" stroke="#7A3E12" stroke-width="5" stroke-linejoin="round"></path></g><rect x="112" y="122" width="170" height="20" rx="3" fill="#FFF8EA" stroke="#D9B47A" stroke-width="2"></rect></svg>
